<svg xmlns="http://www.w3.org/2000/svg" width="57" height="54" viewBox="0 0 57 54" fill="none">
  <path d="M29.266 48.9236C16.7942 48.9236 6.64337 38.8289 6.64337 26.4263C6.64337 14.0236 16.7942 3.92896 29.266 3.92896C41.7378 3.92896 51.8887 14.0236 51.8887 26.4263C51.8887 38.8289 41.7378 48.9236 29.266 48.9236ZM29.266 8.46732C19.3108 8.46732 11.207 16.5261 11.207 26.4263C11.207 36.3264 19.3108 44.3852 29.266 44.3852C39.2213 44.3852 47.3251 36.3264 47.3251 26.4263C47.3251 16.5261 39.2213 8.46732 29.266 8.46732Z" fill="#F4F3E8"/>
  <path d="M20.3604 38.5371C21.8942 38.5371 23.1377 37.3006 23.1377 35.7752C23.1377 34.2499 21.8942 33.0133 20.3604 33.0133C18.8265 33.0133 17.5831 34.2499 17.5831 35.7752C17.5831 37.3006 18.8265 38.5371 20.3604 38.5371Z" fill="#F4F3E8"/>
  <path d="M28.9531 35.7818C30.487 35.7818 31.7304 34.5452 31.7304 33.0199C31.7304 31.4945 30.487 30.2579 28.9531 30.2579C27.4192 30.2579 26.1758 31.4945 26.1758 33.0199C26.1758 34.5452 27.4192 35.7818 28.9531 35.7818Z" fill="#F4F3E8"/>
  <path d="M29.7485 42.6022C31.2824 42.6022 32.5258 41.3657 32.5258 39.8403C32.5258 38.3149 31.2824 37.0784 29.7485 37.0784C28.2146 37.0784 26.9712 38.3149 26.9712 39.8403C26.9712 41.3657 28.2146 42.6022 29.7485 42.6022Z" fill="#F4F3E8"/>
  <path d="M36.607 29.8365C38.1409 29.8365 39.3843 28.5999 39.3843 27.0745C39.3843 25.5492 38.1409 24.3126 36.607 24.3126C35.0732 24.3126 33.8297 25.5492 33.8297 27.0745C33.8297 28.5999 35.0732 29.8365 36.607 29.8365Z" fill="#F4F3E8"/>
  <path d="M37.2589 38.8159C38.7928 38.8159 40.0362 37.5794 40.0362 36.054C40.0362 34.5287 38.7928 33.2921 37.2589 33.2921C35.7251 33.2921 34.4816 34.5287 34.4816 36.054C34.4816 37.5794 35.7251 38.8159 37.2589 38.8159Z" fill="#F4F3E8"/>
  <path d="M43.3938 33.0198C44.9277 33.0198 46.1711 31.7833 46.1711 30.2579C46.1711 28.7325 44.9277 27.496 43.3938 27.496C41.86 27.496 40.6165 28.7325 40.6165 30.2579C40.6165 31.7833 41.86 33.0198 43.3938 33.0198Z" fill="#F4F3E8"/>
  <path d="M41.2293 20.8634C42.7632 20.8634 44.0066 19.6269 44.0066 18.1015C44.0066 16.5762 42.7632 15.3396 41.2293 15.3396C39.6955 15.3396 38.452 16.5762 38.452 18.1015C38.452 19.6269 39.6955 20.8634 41.2293 20.8634Z" fill="#F4F3E8"/>
</svg>